<svg width="30" height="30" viewBox="0 0 30 30" fill="none" xmlns="http://www.w3.org/2000/svg">
<path d="M28.2252 15C29.2054 15 30.0108 15.7974 29.8951 16.7707C29.5455 19.7123 28.3302 22.4992 26.384 24.7675C24.0508 27.4869 20.8211 29.2813 17.2795 29.8258C13.7379 30.3703 10.1184 29.6291 7.07597 27.7362C4.03354 25.8433 1.76924 22.9238 0.692822 19.5061C-0.383591 16.0884 -0.200992 12.3982 1.20757 9.10348C2.61614 5.80873 5.15761 3.12706 8.37204 1.54377C11.5865 -0.0395238 15.2615 -0.419826 18.732 0.471687C21.6268 1.2153 24.2198 2.80276 26.1921 5.01306C26.8446 5.74442 26.6415 6.85947 25.8383 7.42117V7.42117C25.035 7.98288 23.9373 7.77513 23.2583 7.0682C21.7918 5.54137 19.9217 4.4421 17.8489 3.90963C15.1996 3.22909 12.3942 3.5194 9.94047 4.72802C7.48669 5.93665 5.54663 7.98373 4.47138 10.4988C3.39614 13.0139 3.25675 15.8308 4.07844 18.4398C4.90013 21.0487 6.62862 23.2773 8.95109 24.7223C11.2736 26.1673 14.0366 26.7331 16.7401 26.3174C19.4436 25.9018 21.909 24.532 23.6901 22.4561C25.0837 20.8319 25.9864 18.8594 26.3132 16.7677C26.4645 15.7993 27.245 15 28.2252 15V15Z" fill="white"/>
<rect x="13.6765" y="7.94116" width="2.64706" height="9.70588" rx="1.32353" fill="white"/>
<circle cx="15.0001" cy="20.294" r="1.76471" fill="white"/>
</svg>
